# xmcd
# 
# Track frame offsets:
#     150
#     13726
#     26362
#     41996
#     61625
#     76925
#     90338
#     103797
#     120236
#     138505
#     154249
#     171905
#     185274
#     198575
#     214233
#     235083
#     251908
#     267079
#     280176
#     293005
# 
# Disc length: 4148
# 
# Revision: 0
# Processed by: cddbd v1.5.2PL0 Copyright (c) Steve Scherf et al.
# Submitted via: fre:ac v1.0.17
# 
DISCID=13103214
DTITLE=Various Artist - Dad Likes Country
DYEAR=2011
DGENRE=Country
TTITLE0=Emerson Drive - Countrified Soul
TTITLE1=Steve Forde - I Ain't That Guy
TTITLE2=Easton Corbin - Roll With It
TTITLE3=Doc Walker - One Last Sundown
TTITLE4=Trace Adkins - Hold My Beer
TTITLE5=Shea Fisher - Make You Want to
TTITLE6=Corb Lund - The Truck Got Stuck
TTITLE7=Toby Keith - Country Comes To Town
TTITLE8=Joe Nichols - Let's Get Drunk And Fight
TTITLE9=Jasmine Rae - My Own Thing
TTITLE10=McAlister Kemp - Blue Collar Night
TTITLE11=The Wilson Pickers - Half A Man
TTITLE12=Peter McWhirter - Girls In The Summertime
TTITLE13=Gary Allan - Man Of Me
TTITLE14=Phil Vassar - Bobbi With Ani
TTITLE15=The Wilkinsons - Six Pack
TTITLE16=Travis Collins - A Friend To Me
TTITLE17=Vince Gill - Liza Jane
TTITLE18=Ryan Adams - Firecracker
TTITLE19=Warren H Williams - Family
EXTD=
EXTT0=
EXTT1=
EXTT2=
EXTT3=
EXTT4=
EXTT5=
EXTT6=
EXTT7=
EXTT8=
EXTT9=
EXTT10=
EXTT11=
EXTT12=
EXTT13=
EXTT14=
EXTT15=
EXTT16=
EXTT17=
EXTT18=
EXTT19=
PLAYORDER=
